# xmcd
#
# Track frame offsets:
# 150
# 15169
# 29108
# 47413
# 60987
# 78970
# 97719
# 117231
# 135430
# 150181
# 167989
# 181486
# 197565
# 214298
#
# Disc length: 3068 seconds
#
#
# Revision: 0
# Processed by: cddbd v1.5.2PL0 Copyright (c) Steve Scherf et al.
# Submitted via: FreeRIP 2.95 
#
DISCID=a40bfa0e
DTITLE=Leandro and Leonardo - Seleção de Sucessos-Leandro and Leonardo de 1990 a 1992
DYEAR=2005
DGENRE=Sertanejo
TTITLE0=Pense em Mim
TTITLE1=Não Aprendi a Dizer Adeus
TTITLE2=Temporal de Amor
TTITLE3=Cadê Você
TTITLE4=O Cheiro da Maçã
TTITLE5=Desculpe, Mas Eu Vou Chorar
TTITLE6=Talismã
TTITLE7=Sonho por Sonho
TTITLE8=Não Olhe Assim
TTITLE9=Fim de Semana sem Você
TTITLE10=Mais Uma Noite sem Você
TTITLE11=Bate Coração
TTITLE12=Esta Noite Foi Maravilhosa(Wonderful Tonight)
TTITLE13=Paz na Cama
EXTD=by Magno
EXTT0=
EXTT1=
EXTT2=
EXTT3=
EXTT4=
EXTT5=
EXTT6=
EXTT7=
EXTT8=
EXTT9=
EXTT10=
EXTT11=
EXTT12=
EXTT13=
PLAYORDER=
